HIERARCHY
ROOT Hips
{
	OFFSET 0.000000 0.000000 0.000000
	CHANNELS 6 Xposition Yposition Zposition Zrotation Yrotation Xrotation 
	JOINT LHipJoint
	{
		OFFSET 0.000000 0.000000 0.000000
		CHANNELS 3 Zrotation Yrotation Xrotation
		JOINT LeftUpLeg
		{
			OFFSET 1.363060 -1.794630 0.839290
			CHANNELS 3 Zrotation Yrotation Xrotation
			JOINT LeftLeg
			{
				OFFSET 2.448110 -6.726130 0.000000
				CHANNELS 3 Zrotation Yrotation Xrotation
				JOINT LeftFoot
				{
					OFFSET 2.562200 -7.039590 0.000000
					CHANNELS 3 Zrotation Yrotation Xrotation
					JOINT LeftToeBase
					{
						OFFSET 0.157640 -0.433110 2.322550
						CHANNELS 3 Zrotation Yrotation Xrotation
						End Site
						{
							OFFSET 0.000000 0.000000 0.000000
						}
					}
				}
			}
		}
	}
	JOINT RHipJoint
	{
		OFFSET 0.000000 0.000000 0.000000
		CHANNELS 3 Zrotation Yrotation Xrotation
		JOINT RightUpLeg
		{
			OFFSET -1.305520 -1.794630 0.839290
			CHANNELS 3 Zrotation Yrotation Xrotation
			JOINT RightLeg
			{
				OFFSET -2.542530 -6.985550 0.000000
				CHANNELS 3 Zrotation Yrotation Xrotation
				JOINT RightFoot
				{
					OFFSET -2.568260 -7.056230 0.000000
					CHANNELS 3 Zrotation Yrotation Xrotation
					JOINT RightToeBase
					{
						OFFSET -0.164730 -0.452590 2.363150
						CHANNELS 3 Zrotation Yrotation Xrotation
						End Site
						{
							OFFSET 0.000000 0.000000 0.000000
						}
					}
				}
			}
		}
	}
}
MOTION
Frames: 33
Frame Time: 0.008333
-0.655281 16.716538 0.136350 -99.029449 84.977233 -81.461771 -8.863426 1.560422 3.861072 -21.062318 -2.659727 -40.070549 -2.991550 -0.109169 21.923743 1.165716 3.440496 -10.434765 -0.123600 -0.000000 -4.415500 11.038620 -5.385222 -1.312939 4.895889 -19.314556 -4.392430 1.443092 -2.316398 30.269328 0.395918 20.609341 25.496605 10.694100 0.000000 -82.867200
-0.461147 16.651818 0.106112 -95.238668 84.889074 -77.792134 -8.791456 1.574919 3.951834 -20.778417 -3.599692 -40.731391 -2.732006 0.168326 25.268695 1.443208 4.435457 -12.042191 179.662600 -0.000000 -1.010000 11.245287 -5.248139 -1.406292 4.034790 -19.774537 -5.404506 1.210390 -2.428949 33.202004 0.259738 21.124590 26.566889 11.365900 0.000000 -82.237200
-0.272890 16.596808 0.072903 -90.156773 84.796579 -72.863719 -8.723262 1.606031 3.981263 -20.593573 -4.308310 -41.184126 -2.500239 0.420096 28.333102 1.710203 5.416394 -13.564667 179.410200 0.000000 -4.795500 11.442457 -5.048913 -1.493581 3.176773 -20.021316 -6.484822 0.948586 -2.528829 36.204841 0.100895 20.921758 27.719358 11.691399 0.000000 -81.302200
-0.090333 16.552851 0.036651 -83.799569 84.681592 -66.683212 -8.666665 1.659836 3.956558 -20.525284 -4.773088 -41.378341 -2.315060 0.633363 30.925787 1.961879 6.356579 -15.007359 179.125000 -0.000001 -7.205300 11.611793 -4.787542 -1.570984 2.342106 -20.037753 -7.627790 0.667693 -2.613025 39.227273 -0.077346 19.982810 28.882401 11.595900 -0.000001 -80.024600
0.086983 16.520556 -0.003042 -76.502333 84.520864 -59.571936 -8.639801 1.728735 3.886922 -20.565412 -5.000339 -41.303049 -2.185299 0.801702 32.940972 2.195022 7.227838 -16.387120 178.812500 0.000000 -8.549800 11.727984 -4.478464 -1.632770 1.565362 -19.818209 -8.831923 0.382644 -2.683152 42.215252 -0.272395 18.343870 29.957550 11.035100 -0.000001 -78.390300
0.259761 16.499952 -0.046690 -68.935483 84.300991 -52.187196 -8.659273 1.792405 3.781037 -20.688068 -5.017260 -40.963116 -2.109541 0.919374 34.338225 2.406583 8.007360 -17.704761 178.481300 -0.000000 -9.080700 11.773736 -4.149664 -1.674608 0.878748 -19.378190 -10.092543 0.111020 -2.746986 45.114534 -0.480825 16.107275 30.829492 10.019500 -0.000000 -76.435500
0.428722 16.490495 -0.094836 -61.919595 84.022215 -45.341758 -8.727355 1.828426 3.645636 -20.854160 -4.862116 -40.371041 -2.078691 0.980458 35.128026 2.592887 8.676583 -18.939719 178.144700 0.000000 -8.986500 11.751858 -3.834208 -1.693888 0.310618 -18.749062 -11.396680 -0.132351 -2.815743 47.873540 -0.696660 13.434821 31.387237 8.624000 0.000000 -74.256099
0.594785 16.491108 -0.148033 -56.139154 83.692589 -39.715448 -8.830442 1.825425 3.487320 -21.014728 -4.573788 -39.550520 -2.080003 0.982499 35.358822 2.749607 9.219618 -20.055860 177.820901 0.000000 -8.425401 11.683424 -3.557618 -1.689331 -0.112205 -17.966900 -12.724348 -0.340716 -2.897952 50.446706 -0.910430 10.527336 31.543214 6.979700 0.000000 -71.987000
0.758926 16.500507 -0.206646 -51.919616 83.322895 -35.632008 -8.949417 1.787524 3.314653 -21.125271 -4.189430 -38.534702 -2.100997 0.929834 35.101404 2.872795 9.627636 -21.010871 177.531100 -0.000000 -7.563300 11.593792 -3.329820 -1.661804 -0.374545 -17.065883 -14.052277 -0.516252 -2.995377 52.799500 -1.110053 7.599730 31.246181 5.249901 0.000000 -69.753000
0.922074 16.517257 -0.270783 -49.247706 82.927700 -33.077007 -9.071325 1.726720 3.138413 -21.156186 -3.748232 -37.362207 -2.130829 0.832620 34.439388 2.959705 9.902224 -21.764897 177.294700 -0.000000 -6.588300 11.499794 -3.148860 -1.614129 -0.477287 -16.077510 -15.358849 -0.665277 -3.104142 54.906220 -1.283466 4.847745 30.490285 3.596500 0.000000 -67.705200
1.085078 16.539910 -0.340234 -47.924065 82.527938 -31.848576 -9.191459 1.654678 2.970323 -21.096626 -3.295224 -36.072742 -2.160383 0.703583 33.463903 3.009375 10.054557 -22.288394 177.126000 0.000000 -5.695600 11.408235 -3.008093 -1.550676 -0.438001 -15.034404 -16.628581 -0.793199 -3.218785 56.752738 -1.420142 2.426452 29.299605 2.150100 0.000000 -65.839800
1.248672 16.567185 -0.414638 -47.745849 82.147928 -31.737043 -9.310763 1.578932 2.821847 -20.945778 -2.877628 -34.709460 -2.181752 0.555465 32.272111 3.022595 10.100972 -22.566105 177.031899 -0.000000 -5.044199 11.319262 -2.901631 -1.474570 -0.275862 -13.965961 -17.853423 -0.901942 -3.333783 58.328375 -1.513594 0.428084 27.731433 0.988700 0.000000 -64.139800
1.413349 16.598051 -0.493417 -48.528677 81.815087 -32.549092 -9.431410 1.504265 2.702959 -20.715269 -2.541921 -33.314218 -2.189185 0.399759 30.956202 3.002522 10.063330 -22.596527 177.012100 -0.000000 -4.716000 11.230381 -2.823239 -1.387393 -0.015656 -12.897540 -19.031864 -0.990153 -3.443680 59.623609 -1.563178 -1.121497 25.880373 0.132400 0.000001 -62.737900
1.579383 16.631701 -0.575829 -50.143761 81.555905 -34.147109 -9.554815 1.434259 2.620942 -20.425056 -2.326416 -31.922951 -2.179767 0.246104 29.596844 2.953527 9.962181 -22.391055 177.060700 -0.000000 -4.700301 11.139025 -2.766990 -1.291287 0.313652 -11.856049 -20.168695 -1.055066 -3.545071 60.643360 -1.571362 -2.242290 23.831511 -0.440900 0.000000 -61.408200
1.746792 16.667648 -0.661070 -52.526528 81.390388 -36.458482 -9.681784 1.371359 2.579831 -20.098674 -2.255128 -30.567999 -2.153442 0.101640 28.256796 2.880450 9.813663 -21.970737 177.168600 -0.000000 -4.907000 11.042207 -2.726648 -1.186798 0.685872 -10.860578 -21.272299 -1.093873 -3.634406 61.392120 -1.546819 -3.005165 21.697032 -0.789199 0.000000 -60.231400
1.915333 16.705546 -0.748360 -55.667503 81.328841 -39.469138 -9.812911 1.317398 2.579823 -19.759168 -2.333468 -29.272915 -2.112778 -0.029108 26.977586 2.787578 9.626590 -21.363496 177.325300 0.000000 -5.202400 10.937030 -2.696206 -1.074728 1.077876 -9.926013 -22.353376 -1.105673 -3.709213 61.883436 -1.501187 -3.504594 19.581800 -0.981600 0.000000 -59.104800
2.084615 16.745233 -0.836979 -59.601245 81.368300 -43.213436 -9.949226 1.273503 2.617359 -19.426595 -2.547970 -28.051924 -2.062382 -0.144202 25.778124 2.678023 9.400986 -20.601514 177.520800 0.000000 -5.446000 10.820417 -2.670060 -0.956389 1.471777 -9.061978 -23.421626 -1.092214 -3.767621 62.135490 -1.447990 -3.846584 17.581438 -1.085700 -0.000000 -58.038900
2.254131 16.786581 -0.926382 -64.392271 81.490503 -47.760118 -10.093067 1.240120 2.685650 -19.113808 -2.868586 -26.909967 -2.007613 -0.243565 24.659343 2.553622 9.130562 -19.717158 177.745301 0.000000 -5.520300 10.688926 -2.643560 -0.833675 1.857459 -8.271569 -24.484638 -1.057815 -3.808459 62.171691 -1.399985 -4.130632 15.767050 -1.155400 -0.000000 -57.017499
2.423239 16.829403 -1.016057 -70.078755 81.664409 -53.156590 -10.246009 1.218400 2.775846 -18.832053 -3.257667 -25.840080 -1.954077 -0.328373 23.603648 2.415754 8.808651 -18.738149 177.990000 -0.000000 -5.347600 10.540430 -2.611410 -0.709403 2.225101 -7.552887 -25.544321 -1.008645 -3.830569 62.015176 -1.367705 -4.436888 14.189657 -1.227500 -0.000000 -56.139100
2.591422 16.873481 -1.105844 -76.682373 81.841995 -59.435804 -10.411772 1.208843 2.877614 -18.577904 -3.667634 -24.834045 -1.906103 -0.399919 22.591159 2.264273 8.422860 -17.688440 178.247400 0.000001 -4.886400 10.372354 -2.570967 -0.586106 2.580220 -6.895653 -26.597850 -0.950659 -3.833427 61.690748 -1.356582 -4.814465 12.852245 -1.321099 0.000000 -55.317900
2.758135 16.918432 -1.195633 -84.102360 81.968559 -66.510135 -10.591604 1.213195 2.980594 -18.345708 -4.055033 -23.878543 -1.866663 -0.459210 21.598254 2.099410 7.965444 -16.582836 178.510500 0.000000 -4.130601 10.185001 -2.518863 -0.465884 2.929063 -6.283299 -27.637210 -0.888970 -3.816232 61.216871 -1.368323 -5.283158 11.740991 -1.442600 0.000000 -54.619800
2.923019 16.963798 -1.285250 -92.082768 81.993694 -74.136587 -10.782224 1.234358 3.075368 -18.130425 -4.386145 -22.956168 -1.837292 -0.506955 20.601781 1.922247 7.435062 -15.426700 178.773100 0.000000 -3.098400 9.983297 -2.451827 -0.350200 3.275007 -5.696176 -28.650161 -0.826723 -3.779118 60.608461 -1.399787 -5.828462 10.812343 -1.586200 0.000000 -54.032600
3.085875 17.009045 -1.374892 -100.260246 81.870445 -81.960532 -10.981060 1.273035 3.154140 -17.914373 -4.632482 -22.060832 -1.817114 -0.543283 19.594889 1.733301 6.826839 -14.221107 179.029900 0.000000 -1.824201 9.772165 -2.370752 -0.237161 3.633630 -5.105846 -29.625228 -0.764076 -3.723293 59.872714 -1.444644 -6.415085 10.006552 -1.739600 -0.000000 -53.492500
3.246675 17.053602 -1.464548 -108.211037 81.574704 -89.563694 -11.181998 1.328935 3.211926 -17.685985 -4.784684 -21.185870 -1.804039 -0.568360 18.577101 1.534760 6.144563 -12.961070 179.275200 0.000000 -0.356900 9.559021 -2.277886 -0.123388 4.010239 -4.484589 -30.551756 -0.699135 -3.651543 59.011837 -1.494585 -6.991315 9.262453 -1.884800 -0.000000 -52.981300
3.405632 17.096881 -1.554322 -115.586745 81.100641 -96.597450 -11.380729 1.399008 3.247243 -17.432430 -4.848343 -20.332902 -1.794803 -0.582223 17.560860 1.329490 5.393754 -11.642092 -0.497500 -0.000001 -1.245700 9.348676 -2.178708 -0.003057 4.407625 -3.802687 -31.422683 -0.628310 -3.567522 58.024396 -1.540695 -7.501013 8.521923 -2.002300 -0.000001 -52.451500
3.563101 17.138309 -1.644032 -122.193797 80.463250 -102.863554 -11.572480 1.479297 3.263142 -17.150194 -4.850178 -19.506179 -1.786029 -0.584969 16.564040 1.122242 4.589584 -10.260872 -0.294800 0.000000 -2.917800 9.144541 -2.078394 0.130704 4.814893 -3.035134 -32.237632 -0.547994 -3.474868 56.910182 -1.575031 -7.892736 7.741193 -2.074700 -0.000001 -51.895601
3.719547 17.177410 -1.733601 -127.992008 79.683404 -108.313601 -11.755119 1.564959 3.265990 -16.836400 -4.828934 -18.714069 -1.774121 -0.576582 15.610673 0.918370 3.750018 -8.820766 -0.123700 0.000000 -4.588000 8.946349 -1.981856 0.285104 5.216781 -2.160695 -33.000744 -0.454994 -3.376113 55.670873 -1.591851 -8.130081 6.890770 -2.090901 0.000000 -51.280600
3.875550 17.213912 -1.822932 -133.036200 78.782899 -112.993960 -11.928852 1.651312 3.263694 -16.487379 -4.827473 -17.967452 -1.755573 -0.556727 14.727851 0.723071 2.893300 -7.329863 0.009900 0.000000 -6.221200 8.750804 -1.892713 0.466034 5.598939 -1.165189 -33.718219 -0.347271 -3.272263 54.311310 -1.588813 -8.199436 5.959483 -2.049400 0.000000 -50.571700
4.031691 17.247490 -1.911759 -137.448704 77.787743 -117.019002 -12.089033 1.735723 3.267172 -16.113758 -4.904089 -17.268938 -1.727971 -0.526182 13.932853 0.542944 2.050347 -5.803350 0.102100 -0.000000 -7.762600 8.557804 -1.810115 0.676453 5.933790 -0.053585 -34.404798 -0.224834 -3.163815 52.847104 -1.566560 -8.105005 4.952840 -1.956400 0.000000 -49.804700
4.188535 17.278067 -1.999751 -141.357043 76.719574 -120.512277 -12.232184 1.816402 3.286155 -15.722979 -5.109041 -16.617235 -1.689460 -0.485836 13.239152 0.382931 1.248626 -4.259742 0.152200 -0.000000 -9.195800 8.366557 -1.732446 0.915229 6.203981 1.153324 -35.075403 -0.088950 -3.050763 51.299387 -1.528577 -7.870096 3.886565 -1.824599 0.000000 -49.018200
4.346613 17.305660 -2.087073 -144.852351 75.590162 -123.565622 -12.357927 1.892029 3.328183 -15.317383 -5.477900 -16.008799 -1.637975 -0.436458 12.655092 0.246009 0.510689 -2.713007 0.163100 0.000000 -10.597500 8.174792 -1.658843 1.176788 6.407736 2.418747 -35.744451 0.058936 -2.933082 49.691105 -1.479749 -7.528180 2.783162 -1.669100 0.000000 -48.277101
4.506244 17.330279 -2.173725 -148.024768 74.415029 -126.275655 -12.461477 1.963031 3.400481 -14.911229 -6.045066 -15.427300 -1.573486 -0.380286 12.175855 0.135089 -0.134262 -1.188444 0.141100 0.000000 -11.925900 7.984752 -1.587179 1.450325 6.545313 3.681916 -36.427094 0.217064 -2.811973 48.052743 -1.423561 -7.103684 1.662980 -1.501200 0.000000 -47.700101
4.667730 17.352071 -2.260157 -150.907542 73.202868 -128.686698 -12.545900 2.029925 3.505086 -14.502619 -6.811581 -14.862838 -1.495276 -0.317927 11.797871 0.049970 -0.673126 0.306680 0.094600 -0.000000 -13.332400 7.794012 -1.518969 1.722646 6.649065 4.881245 -37.129847 0.386059 -2.688332 46.402844 -1.361917 -6.614346 0.543868 -1.329600 0.000000 -47.380500
